<svg id="Capa_1" data-name="Capa 1" xmlns="http://www.w3.org/2000/svg" viewBox="0 0 953.51 516.77"><defs><style>.cls-1{fill:#fff;}</style></defs><path class="cls-1" d="M826.62,447.89C785,451.4,740,452.48,689,451.22c-13.15-.36-27.2-.9-44.24-1.7-46.37-2.11-94-5.6-140.15-9-54.25-4-110.35-8.07-165.15-10-17.42-.57-30.72-.9-43.19-1.08-49.79-.54-93.46,1.09-133.48,5-9.93.95-18.89,2-27.2,3.13-39.25,5.08-75,12.37-108.89,22.18v43.71c35.18-11,72.59-19,114.45-24.42,7.89-1.09,16.27-2.06,25.67-3,36.76-3.62,76.88-5.21,122.3-4.88a258.32,258.32,0,0,0,412,22c47.19.82,89.54-.39,128.88-3.71,8.81-.68,18.27-1.62,29.79-2.95,43.89-5.1,83.45-12.84,120.41-23.56V419.34c-38,11.92-79,20.36-125.22,25.74C844,446.35,835,447.24,826.62,447.89ZM337.46,472.35H338c54,1.91,109.65,6,163.52,9.92,46.38,3.39,94.35,6.9,141.26,9l7.52.34a220.57,220.57,0,0,1-312.86-19.31Z" transform="translate(-26.68 -68.59)"/><path class="cls-1" d="M855,176.18c-11,1.27-20,2.16-28.35,2.81-33.58,2.83-69.45,4.06-108.83,3.77a258.28,258.28,0,0,0-412.09-22l-9.45-.16c-49.79-.56-93.47,1.08-133.47,5-9.94.94-18.9,2-27.21,3.13-39.26,5.08-75,12.37-108.89,22.17v43.71c35.18-11,72.59-19,114.45-24.41,7.9-1.1,16.27-2.06,25.67-2.95,38.55-3.81,80.74-5.39,128.92-4.84,12.09.17,25.15.49,42.3,1.05,54,1.9,109.65,6,163.52,9.92,46.39,3.39,94.35,6.89,141.26,9,17.19.81,31.51,1.36,45.1,1.73,52.58,1.31,99.11.18,142.09-3.45,8.77-.68,18.23-1.62,29.79-2.95,43.89-5.11,83.45-12.84,120.41-23.57V150.44C942.19,162.35,901.2,170.8,855,176.18Zm-350.38-4.53c-48.62-3.56-98.71-7.21-148-9.32a220.5,220.5,0,0,1,312.91,19.34c-7.65-.29-15.77-.63-24.72-1C598.37,178.5,550.7,175,504.59,171.65Z" transform="translate(-26.68 -68.59)"/><path class="cls-1" d="M581.06,385h36.83V268.78H581.06Zm266.17-48.06,19-35.95L886,336.94Zm39.37-68.16H851.31L781.77,385h39.65l13.21-24.57H899.2L912.58,385h40.91ZM775.48,325.1c-8.81-5.58-22.58-9.07-41.34-10.74l-27.24-2.31c-13.18-1.11-21.41-2.51-24.73-4.05s-5-4.08-5-7.47c0-4.21,2.84-7.47,8.52-9.82s13.7-3.52,24.05-3.52c11.15,0,19.7,1.43,25.7,4.27s9.47,7.28,10.25,13.08H782.2v-1q0-17.52-19.45-27.73-19.28-10.12-53.63-10.11-32,0-51.39,10.8c-12.89,7.17-19.39,16.44-19.39,27.86,0,9.66,4.54,17.1,13.48,22.38s22.9,8.78,42,10.31l26.1,2.09q17.39,1.36,23.07,4.11c3.79,1.8,5.68,4.67,5.68,8.45,0,4.54-2.94,8.06-8.75,10.54S725.82,366,715.18,366c-13.89,0-24.53-1.73-31.78-5.22s-10.89-8.35-10.89-14.88V344.8H634.85v2.45c0,13.12,6.6,23.17,19.68,30.22s31.81,10.67,56.12,10.67c25.55,0,45-3.43,58.17-10.18s19.9-16.51,19.9-29.53c0-10.05-4.4-17.78-13.24-23.33M493,268.78H456.11V385H568.39V360.6H493ZM396.12,385H433V268.78H396.12Zm-66.64-32.85c-8.73,5.8-21.48,8.64-38.32,8.64h-28.5V292.15h28.5q25.35,0,38.32,8.68t13,25.67q0,16.89-13,25.65M118.76,336.94l19-35.95,19.76,35.95Zm228.42-60.52A83,83,0,0,0,326,270.51q-11.9-1.71-35.69-1.73H224.06V383.57l-66-114.79h-35.3L53.31,385H92.9l13.23-24.57h64.54L184.08,385H290.35q23.81,0,35.69-1.73a79.16,79.16,0,0,0,21.14-5.8c10.9-4.7,19.25-11.39,25.09-20.2s8.86-18.89,8.86-30.35-2.94-21.66-8.86-30.37-14.19-15.47-25.09-20.13" transform="translate(-26.68 -68.59)"/></svg>