<svg id="Capa_1" data-name="Capa 1" xmlns="http://www.w3.org/2000/svg" viewBox="0 0 667.9 327.6">
  <defs>
    <style>
      .cls-1{fill:#008996 !important;}
      .cls-2{fill:#fff;}
    </style>
  </defs>
  <path class="cls-1" d="M13.05,112.53c0-12.25,9.72-24.69,21.6-27.66L325.4,12.18c11.88-3,31.32-3,43.2,0L659.35,84.87c11.88,3,21.6,15.42,21.6,27.66V235c0,12.24-9.72,24.69-21.6,27.66L368.6,335.33c-11.88,3-31.32,3-43.2,0L34.65,262.64c-11.88-3-21.6-15.42-21.6-27.66Z" transform="translate(-13.05 -9.96)"/>
  <path class="cls-2" d="M133.32,173.74v4.67H135c10.53,0,13,1,14.67,4,1.25,2.18,1.42,5.34,1.42,9.18v17.72a30.64,30.64,0,0,1-2.92,12.73q-3,5.79-11.07,9.84a40,40,0,0,1-18,4A42.16,42.16,0,0,1,86.6,221.63Q73.52,207.32,73.52,173t13.55-47.92q13.56-13.5,31.79-13.5,17.67,0,30,11.6T164,154.64h4.89V114.11H164l-4,11.82q-17-19-42.95-19-30.17,0-47.72,20.83t-17.56,48.5q0,27.94,18.42,46.17t46.2,18.21c25.77,0,45.07-10,52.52-15.84V188.12c0-1.65-.33-5.79,4.57-8.46,2.21-1.21,6.49-1.23,11.28-1.23v-4.67H133.32Z" transform="translate(-13.05 -9.96)"/>
  <path class="cls-2" d="M347,145.26c.07-7.41.09-9.28,1.86-10.93s4.13-1.73,9.31-1.71v-3.38h-35.7v3.38c5.18,0,7.52,0,9.31,1.71s1.79,3.52,1.86,10.93h0v57h0c-.07,7.41-.19,9.2-2,10.89s-4,1.77-9.18,1.76v3.38h35.7V214.9c-5.17,0-7.34,0-9.18-1.76s-1.92-3.48-2-10.89h0v-57Z" transform="translate(-13.05 -9.96)"/>
  <path class="cls-2" d="M614.68,129.23v3.38c3.59.06,6.31,0,8,1.43,2.18,1.86,2.26,5,2.34,12.43v59.4l-57.48-76.64H551.26v3.38c3.59.06,6.31,0,8,1.43,2.18,1.86,2.26,5,2.34,12.43V201c-.08,7.41-.16,10.57-2.34,12.43-1.72,1.47-4.45,1.37-8,1.43v3.38h26.68V214.9c-3.59-.06-6.31,0-8-1.43-2.18-1.86-2.26-5-2.34-12.43V156L631,240.54V146.47c.08-7.41.16-10.57,2.34-12.43,1.72-1.47,4.45-1.37,8-1.43v-3.38Z" transform="translate(-13.05 -9.96)"/>
  <path class="cls-2" d="M423.5,207.15s-18.86,59.45-76.19,59.45c-27.44,0-54.48-11.44-83.25-48.57-9.28-12-14.41-18.87-21.11-27.69-8.49-11.18-16.09-14.14-20.26-15.25,9-1.06,19.24-6.67,22.47-15.37,2.73-7.36.59-17.7-5.53-23-6.31-5.48-14.36-6.47-22.6-7.2-2.63-.23-5.27-.28-7.9-.28H179.66v3.38c5.18,0,7.25,0,9.18,1.62s1.92,3.61,2,11h0v57h0c-.07,7.41.08,9.29-2,11s-4,1.64-9.18,1.63v3.38h35.7v-3.38c-5.17,0-7.25,0-9.18-1.63s-1.92-3.61-2-11V178.41h2.59c3.71,0,9.68.13,14.67,3.65a39.54,39.54,0,0,1,10.19,9.84c23.11,33.24,55.58,93.16,115.6,93.16,32,0,51.81-19.21,63-36.32A83,83,0,0,0,423.5,207.15ZM209.82,173.76H204.2V132.62c2.37,0,3.31,0,3.92,0,10.82.25,14.32,1.5,18.17,5.19,3.69,3.54,5.51,9,5.51,15.23a22.19,22.19,0,0,1-1.25,7.22C227.93,167.56,220,173.76,209.82,173.76Z" transform="translate(-13.05 -9.96)"/>
  <path class="cls-2" d="M455,145.26c.07-7.41-.19-9.21,1.89-10.94s4.11-1.73,9.28-1.71v-3.38H441.63l-26.27,52.55-26.27-52.55H361.56v3.38c5.17,0,7.52,0,9.31,1.71s1.8,3.52,1.86,10.94h0v57c-.07,7.41-.11,9.29-1.72,10.89-1.78,1.78-4.27,1.77-9.45,1.76v3.38h28.28V214.9c-5.18,0-7.64-.26-9.33-1.76-2-1.79-1.77-3.48-1.84-10.89v-64l32.54,65.08,30.42-60.85v59.75h0c-.07,7.41.08,9.29-2,11s-4,1.64-9.18,1.63v3.38h35.7V214.9c-5.18,0-7.25,0-9.18-1.63s-1.92-3.61-2-11h0v-57Z" transform="translate(-13.05 -9.96)"/>
  <path class="cls-2" d="M308.74,202.93,279.55,88.42s-18.8,74.45-27,106.53c1.46,1.93,3,3.91,4.57,6l0-.13,5.7-22.44h25.8l7.61,30c.42,1.8.65,3.53-.43,5s-3.68,1.55-5.78,1.52h-1.94v3.38h31v-3.38C312,214.9,311,210.69,308.74,202.93Zm-33-75.31,11.72,46.13H264Z" transform="translate(-13.05 -9.96)"/>
  <path class="cls-2" d="M537.53,202.93,508.34,88.43s-23.51,93.1-29.65,116.74a43,43,0,0,1-1.9,6c-1.34,3.14-3.23,3.76-5.13,3.76h-2.12v3.38h24.31V214.9c-2.44,0-5.22-.19-6.83-1.18a5.14,5.14,0,0,1-2.28-3c-.8-3.2.43-6.75.87-8.63l6-23.69h25.8l7.5,29.52c.42,1.8.7,3.51-.33,5-1.24,1.82-3.68,2-5.78,1.94-.61,0-1.94,0-1.94,0v3.38h31V214.9C540.82,214.9,539.83,210.69,537.53,202.93Zm-33-75.31,11.72,46.14H492.8Z" transform="translate(-13.05 -9.96)"/>
</svg>