<?xml version="1.0" encoding="utf-8"?>
<!-- Generator: Adobe Illustrator 24.2.3, SVG Export Plug-In . SVG Version: 6.00 Build 0)  -->
<svg version="1.1" id="Capa_1" xmlns="http://www.w3.org/2000/svg" xmlns:xlink="http://www.w3.org/1999/xlink" x="0px" y="0px"
	 viewBox="0 0 166 70" style="enable-background:new 0 0 166 70;" xml:space="preserve">
<g>
	<g>
		<g>
			<g>
				<path d="M19,10.1c2,0,3.4,0.4,4.1,1.1c0.8,0.7,1.2,1.7,1.2,3c0,1.2-0.4,2.2-1.2,3c-0.8,0.7-2.2,1.1-4.2,1.1h-6.2v-8.1
					C12.6,10.1,19,10.1,19,10.1z M12.6,27.5h5.1c1.7,0,2.9,0.2,3.7,0.6s1.4,1,1.9,1.8c0.4,0.8,0.6,1.9,0.6,3.3l0.1,3.1
					c0,2.8,0.3,4.7,0.6,5.8h13.2v-1.3c-0.5,0-0.8-0.2-1-0.4c-0.2-0.2-0.2-0.8-0.3-1.7L36.3,32c-0.1-3-0.6-5.1-1.5-6.3
					s-2.6-2.4-5.2-3.4c1.2-0.4,2.3-0.9,3.1-1.5c1.2-0.9,2-2.1,2.7-3.5c0.6-1.4,0.9-3.2,0.9-5.3c0-1.7-0.2-3.1-0.6-4.3
					c-0.4-1.1-1-2.2-1.9-3.2c-0.8-1-1.8-1.8-3-2.5c-1.2-0.6-2.7-1.1-4.6-1.4C24.4,0.2,22.1,0,19.4,0H0v42.1h12.6V27.5z M53.9,42.1
					H41.3V0h12.6L53.9,42.1L53.9,42.1z M70.1,42.1L56.9,0h12.8l7,28l6.9-28h12.8L82.9,42.1H70.1z M107.8,28l4-15.3l4.1,15.3H107.8z
					 M105.4,36.6h12.8l1.5,5.5h12.8L118.4,0h-13l-14,42.1H104L105.4,36.6z M165,42.1h-29.9V0h11.9v31.1h18V42.1z"/>
			</g>
			<g>
				<path d="M0.1,65v-2.9h4.6v-4.6h2.9v4.6h4.6V65H7.6v4.6H4.7V65H0.1z"/>
				<path d="M25.8,59.8v-2.3h1.7v-3.4h3.1v3.4h2v2.3h-2v6.4c0,0.5,0.1,0.8,0.2,0.9c0.1,0.1,0.5,0.2,1.2,0.2c0.1,0,0.2,0,0.3,0
					s0.2,0,0.3,0v2.4l-1.5,0.1c-1.5,0.1-2.5-0.2-3.1-0.8c-0.4-0.4-0.5-0.9-0.5-1.7v-7.5L25.8,59.8L25.8,59.8z"/>
				<path d="M50.8,57.5v7.3c0,0.7,0.1,1.2,0.2,1.6c0.3,0.6,0.8,0.9,1.7,0.9c1.1,0,1.8-0.4,2.2-1.3c0.2-0.5,0.3-1.1,0.3-1.9v-6.6h3.2
					v12.1h-3.1v-1.7c0,0-0.1,0.2-0.2,0.3c-0.1,0.2-0.3,0.3-0.4,0.5c-0.5,0.4-1,0.8-1.4,0.9s-1,0.2-1.6,0.2c-1.8,0-3-0.7-3.6-1.9
					c-0.3-0.7-0.5-1.8-0.5-3.2v-7.3L50.8,57.5L50.8,57.5z"/>
				<path d="M84.8,58.9c0.9,1.2,1.4,2.6,1.4,4.5c0,1.9-0.4,3.4-1.3,4.7c-0.9,1.2-2.2,1.9-3.8,1.9c-1,0-1.8-0.2-2.4-0.6
					c-0.4-0.2-0.8-0.7-1.2-1.2v1.5h-3.1V53.2h3.2V59c0.4-0.6,0.8-1,1.3-1.3c0.6-0.4,1.3-0.6,2.2-0.6C82.7,57.2,83.9,57.8,84.8,58.9z
					 M82.2,66.3c0.5-0.7,0.7-1.5,0.7-2.6c0-0.9-0.1-1.6-0.3-2.1c-0.4-1.1-1.2-1.6-2.4-1.6c-1.2,0-2,0.5-2.4,1.6
					c-0.2,0.6-0.3,1.3-0.3,2.2c0,1,0.2,1.9,0.7,2.6s1.2,1,2.1,1C81.1,67.3,81.7,67,82.2,66.3z"/>
				<path d="M111.5,68.1c-1,1.3-2.6,1.9-4.7,1.9s-3.6-0.6-4.7-1.9c-1-1.3-1.5-2.8-1.5-4.6c0-1.8,0.5-3.3,1.5-4.5
					c1-1.3,2.6-1.9,4.7-1.9s3.6,0.6,4.7,1.9c1,1.3,1.5,2.8,1.5,4.5C113,65.3,112.5,66.8,111.5,68.1z M109,66.3
					c0.5-0.7,0.8-1.6,0.8-2.8c0-1.2-0.2-2.2-0.8-2.8s-1.2-1-2.1-1s-1.6,0.3-2.2,1c-0.5,0.7-0.8,1.6-0.8,2.8c0,1.2,0.2,2.1,0.8,2.8
					s1.2,1,2.2,1S108.5,67,109,66.3z"/>
				<path d="M130.7,65.7c0.1,0.6,0.2,1,0.4,1.2c0.4,0.4,1.1,0.6,2.2,0.6c0.6,0,1.1-0.1,1.5-0.3c0.4-0.2,0.6-0.5,0.6-0.8
					c0-0.4-0.1-0.6-0.4-0.8c-0.3-0.2-1.4-0.5-3.3-1c-1.4-0.3-2.4-0.8-2.9-1.3c-0.6-0.5-0.8-1.2-0.8-2.2c0-1.1,0.4-2.1,1.3-2.9
					c0.9-0.8,2.1-1.2,3.7-1.2c1.5,0,2.8,0.3,3.7,0.9s1.5,1.7,1.6,3.1h-3.2c0-0.4-0.2-0.7-0.4-1c-0.4-0.4-0.9-0.7-1.8-0.7
					c-0.7,0-1.2,0.1-1.5,0.3c-0.3,0.2-0.4,0.5-0.4,0.8c0,0.4,0.1,0.6,0.5,0.8c0.3,0.2,1.4,0.5,3.3,0.9c1.3,0.3,2.2,0.8,2.8,1.3
					c0.6,0.6,0.9,1.4,0.9,2.3c0,1.2-0.4,2.2-1.3,2.9c-0.9,0.8-2.3,1.1-4.2,1.1c-1.9,0-3.3-0.4-4.2-1.2c-0.9-0.8-1.4-1.8-1.4-3.1
					L130.7,65.7L130.7,65.7z"/>
				<path d="M153.2,65v-2.9h4.6v-4.6h2.9v4.6h4.6V65h-4.6v4.6h-2.9V65H153.2z"/>
			</g>
		</g>
	</g>
	<path d="M164.6,48.2H0.6c-0.3,0-0.5-0.2-0.5-0.5l0,0c0-0.3,0.2-0.5,0.5-0.5h164c0.3,0,0.5,0.2,0.5,0.5l0,0
		C165.1,47.9,164.9,48.2,164.6,48.2z"/>
</g>
</svg>
