<svg id="Group_5" data-name="Group 5" xmlns="http://www.w3.org/2000/svg" width="191.589" height="43.701" viewBox="0 0 191.589 43.701">
  <g id="Group_1" data-name="Group 1">
    <path id="Path_1" data-name="Path 1" d="M1773.871-739.522l-11.757,11.648a1.286,1.286,0,0,0,0,2.014c4.325,4.337,5.777,5.839,9.4,7.407a8.867,8.867,0,0,0,8.962-1.014c2.32-2.089,12.369-12.215,12.369-12.215a1.3,1.3,0,0,0,0-2.006l-1.482-1.5a1.291,1.291,0,0,0-2,0s-7.723,7.846-10.468,10.582c-2.88,2.872-5.233,2.057-6.821,1.121a16.429,16.429,0,0,1-3.4-2.885c-.43-.476-.591-.667-.591-.667l12.745-12.484v-.024l-12.745-12.492s.161-.185.591-.662a16.584,16.584,0,0,1,3.41-2.893c1.579-.939,3.937-1.754,6.811,1.124,2.745,2.738,17.293,17.413,17.293,17.413a1.308,1.308,0,0,0,2.009,0l1.488-1.5a1.32,1.32,0,0,0,0-2.014s-16.883-16.95-19.2-19.036a8.875,8.875,0,0,0-8.962-1.008c-3.624,1.557-5.068,3.065-9.4,7.4a1.292,1.292,0,0,0,0,2.013l11.763,11.656" transform="translate(-1608.563 761.384)" fill="#000000"/>
    <path id="Path_2" data-name="Path 2" d="M1560.412-744.64h2.349c.616,0,1.022.315,1.022.852a1.152,1.152,0,0,1-.03.3,124.288,124.288,0,0,1-6.117,19.036h-6.071a114.512,114.512,0,0,1-6.128-19.036,1.747,1.747,0,0,1-.019-.3c0-.537.406-.852,1.024-.852h2.77a1.306,1.306,0,0,1,1.329,1.154,121.458,121.458,0,0,0,4.158,14.939,121.224,121.224,0,0,0,4.4-14.939A1.265,1.265,0,0,1,1560.412-744.64Z" transform="translate(-1545.419 756.494)" fill="#000000"/>
    <path id="Path_3" data-name="Path 3" d="M1583.742-725.614a1.064,1.064,0,0,1-1.162,1.164h-2.318a1.066,1.066,0,0,1-1.167-1.164v-17.872a1.062,1.062,0,0,1,1.167-1.154h2.318a1.06,1.06,0,0,1,1.162,1.154Z" transform="translate(-1555.254 756.494)" fill="#000000"/>
    <path id="Path_4" data-name="Path 4" d="M1603.326-740.666v15.052a1.062,1.062,0,0,1-1.164,1.164h-2.312a1.056,1.056,0,0,1-1.167-1.164v-15.052h-4.3a1.028,1.028,0,0,1-1.156-1.153v-1.667a1.04,1.04,0,0,1,1.156-1.154h13.253a1.058,1.058,0,0,1,1.154,1.154v1.667a1.044,1.044,0,0,1-1.154,1.153Z" transform="translate(-1559.38 756.494)" fill="#000000"/>
    <path id="Path_5" data-name="Path 5" d="M1630.685-728.87h-6.942c-.291,1.189-.6,2.288-.812,3.256a1.324,1.324,0,0,1-1.347,1.164h-2.339c-.621,0-1.03-.323-1.03-.831a1.282,1.282,0,0,1,.06-.333c.849-3.567,1.24-4.63,2.067-7.456a95.254,95.254,0,0,1,4.2-11.57h5.687a89.266,89.266,0,0,1,4.229,11.57c.84,2.825,1.216,3.888,2.077,7.456a1.794,1.794,0,0,1,.053.333c0,.508-.406.831-1.026.831h-2.772a1.311,1.311,0,0,1-1.349-1.164C1631.2-726.582,1630.965-727.682,1630.685-728.87Zm-5.9-4.006h4.908a77.165,77.165,0,0,0-2.393-8.086C1626.76-739.614,1625.76-736.329,1624.789-732.877Z" transform="translate(-1566.679 756.494)" fill="#000000"/>
    <path id="Path_6" data-name="Path 6" d="M1656.566-729.481v3.9a1.066,1.066,0,0,1-1.159,1.164h-2.31a1.066,1.066,0,0,1-1.156-1.164v-17.876a1.059,1.059,0,0,1,1.156-1.155h6.217c4.611,0,7.565,2.091,7.565,7.346,0,5.678-3.576,7.786-7.991,7.786Zm0-11.158v7.168h1.89c2.53,0,3.579-.83,3.579-3.8,0-2.716-1.049-3.372-3.579-3.372Z" transform="translate(-1576.529 756.486)" fill="#000000"/>
    <path id="Path_7" data-name="Path 7" d="M1688.621-730.421h-2.829v4.839a1.065,1.065,0,0,1-1.158,1.164h-2.315a1.063,1.063,0,0,1-1.157-1.164v-17.876a1.056,1.056,0,0,1,1.157-1.155h6.221c4.6,0,7.567,1.478,7.567,6.724a6.413,6.413,0,0,1-3.257,5.9,18.415,18.415,0,0,1,4.231,6.41,1.378,1.378,0,0,1,.08.438c0,.443-.409.726-.979.726h-2.852a1.48,1.48,0,0,1-1.42-1.164C1691.235-727.19,1689.914-729.628,1688.621-730.421Zm-2.829-10.218v6.338h1.888c2.532,0,3.587-.842,3.587-3.369s-1.055-2.968-3.587-2.968Z" transform="translate(-1585.063 756.486)" fill="#000000"/>
    <path id="Path_8" data-name="Path 8" d="M1709.955-734.285v-.866c0-6.2,3.046-9.774,9.26-9.774,6.2,0,9.268,3.573,9.268,9.774v.866c0,6.192-3.07,9.991-9.268,9.991C1713-724.294,1709.955-728.093,1709.955-734.285Zm13.678,0v-.866c0-3.45-.939-5.765-4.418-5.765s-4.407,2.315-4.407,5.765v.866c0,3.477.93,5.974,4.407,5.974S1723.633-730.808,1723.633-734.285Z" transform="translate(-1593.472 756.577)" fill="#000000"/>
    <path id="Path_9" data-name="Path 9" d="M1784.84-752.68" transform="translate(-1615.342 758.842)" fill="#000000"/>
  </g>
</svg>
